<?xml version="1.0" encoding="utf-8"?>
<!-- Generator: Adobe Illustrator 28.0.0, SVG Export Plug-In . SVG Version: 6.00 Build 0)  -->
<svg version="1.1" id="Layer_1" xmlns="http://www.w3.org/2000/svg" xmlns:xlink="http://www.w3.org/1999/xlink" x="0px" y="0px"
	 viewBox="0 0 300 300" style="enable-background:new 0 0 300 300;" xml:space="preserve">
<style type="text/css">
	.st0{fill:#209BEF;}
</style>
<g>
	<path class="st0" d="M186.2,14.6c7.9,0,14.4,6.5,14.4,14.4l0,0c0,7.9-6.5,14.4-14.4,14.4h-1.8v84.5l78.3,122.6
		c8.3,15.9-3.3,35-21.2,35H58.6c-18,0-29.5-19-21.2-35l78.3-122.6V43.4h-1.8c-7.9,0-14.4-6.5-14.4-14.4l0,0
		c0-7.9,6.5-14.4,14.4-14.4L186.2,14.6 M186.1,4.8h-72.3c-13.3,0-24.2,10.8-24.2,24.2c0,10.5,6.7,19.5,16.2,22.8V125L29.1,245.2
		l-0.2,0.4l-0.2,0.4c-5.5,10.5-5.1,22.9,1.1,33c6.2,10.1,16.9,16.2,28.8,16.2h182.8c11.9,0,22.6-6,28.8-16.2
		c6.2-10.1,6.6-22.5,1.1-33l-0.2-0.4l-0.2-0.4L194.2,125V51.8c9.4-3.3,16.2-12.3,16.2-22.8C210.4,15.6,199.5,4.8,186.1,4.8
		L186.1,4.8L186.1,4.8z"/>
	<path class="st0" d="M253.5,268.9c-2.6,4.3-7,6.8-12.1,6.8H58.5c-5.1,0-9.5-2.5-12.1-6.8c-2.6-4.2-2.8-9.1-0.6-13.6l54.9-86
		c5,4.3,15.3,11.5,29.3,11.5c20,0,32.9-18.8,50.6-18.8c6.8,0,13.1,2.7,17.1,4.9h0l56.4,88.4C256.3,259.7,256,264.6,253.5,268.9
		L253.5,268.9z"/>
	<circle class="st0" cx="131.5" cy="149.9" r="10"/>
	<circle class="st0" cx="171.5" cy="152.6" r="5"/>
	<circle class="st0" cx="135.4" cy="79.1" r="6"/>
	<circle class="st0" cx="162.5" cy="114.5" r="8.3"/>
</g>
</svg>
