<?xml version="1.0" encoding="UTF-8"?>
<svg id="Layer_1" data-name="Layer 1" xmlns="http://www.w3.org/2000/svg" viewBox="0 0 300 150">
  <defs>
    <style>
      .cls-1 {
        fill: #00a9dd;
        stroke-width: 0px;
      }
    </style>
  </defs>
  <g>
    <path class="cls-1" d="m81.4,11.19c3.73,0,6.79,3.05,6.79,6.79h0c0,3.73-3.05,6.79-6.79,6.79h-.83v39.81l36.87,57.77c3.89,7.51-1.55,16.47-10.01,16.47H21.29c-8.46,0-13.91-8.96-10.01-16.47l36.87-57.77V24.76h-.83c-3.73,0-6.79-3.05-6.79-6.79h0c0-3.73,3.05-6.79,6.79-6.79h34.07m0-4.6h-34.07c-6.28,0-11.39,5.11-11.39,11.39,0,4.96,3.18,9.19,7.61,10.75v34.51L7.4,119.87l-.11.17-.09.18c-2.58,4.96-2.38,10.78.53,15.56,2.9,4.78,7.98,7.63,13.57,7.63h86.14c5.59,0,10.67-2.85,13.57-7.63,2.9-4.78,3.1-10.6.53-15.56l-.09-.18-.11-.17-36.15-56.64V28.72c4.43-1.56,7.61-5.79,7.61-10.75,0-6.28-5.11-11.39-11.39-11.39h0Z"/>
    <path class="cls-1" d="m113.14,131.01c-1.24,2.04-3.32,3.21-5.71,3.21H21.28c-2.38,0-4.46-1.17-5.71-3.21-1.21-1.99-1.31-4.3-.3-6.39l25.86-40.53c2.35,2.04,7.22,5.41,13.79,5.41,9.42,0,15.52-8.86,23.84-8.86,3.21,0,6.18,1.28,8.06,2.31h.01l26.59,41.67c1.01,2.08.91,4.39-.3,6.39Z"/>
    <circle class="cls-1" cx="55.63" cy="74.96" r="4.7"/>
    <circle class="cls-1" cx="74.48" cy="76.2" r="2.35"/>
    <circle class="cls-1" cx="57.49" cy="41.58" r="2.84"/>
    <circle class="cls-1" cx="70.26" cy="58.28" r="3.89"/>
  </g>
  <g>
    <g>
      <path class="cls-1" d="m129,59.48c-.46-1.73-.61-3.36-.43-4.89.17-1.53.52-2.87,1.04-4.02.52-1.15,1.17-2.06,1.95-2.73.78-.66,1.57-1,2.38-1,.58,0,1.18.25,1.82.74.63.49,1.26,1.08,1.86,1.77s1.14,1.4,1.6,2.12c.46.72.78,1.31.95,1.77.23.4.52.52.87.35.35-.11.46-.4.35-.87-.4-.87-1.01-1.83-1.82-2.9-.81-1.07-1.73-2.09-2.77-3.07-.46-.46-.95-.91-1.47-1.34-.52-.43-1.04-.91-1.56-1.43-2.08-2.13-3.66-4.64-4.76-7.53-1.1-2.88-1.59-5.8-1.47-8.74.06-1.9.39-3.74,1-5.5.61-1.76,1.46-3.33,2.55-4.72,1.09-1.38,2.42-2.49,3.98-3.33,1.56-.84,3.35-1.28,5.37-1.34,3.52-.11,6.42.78,8.7,2.68,2.28,1.9,3.85,4.5,4.72,7.79.63,2.48.66,4.7.09,6.66-.58,1.96-1.79,3.58-3.64,4.85-1.33.98-2.63,1.47-3.89,1.47-.81,0-1.56-.26-2.25-.78-.69-.52-1.33-1.15-1.9-1.9-.58-.75-1.07-1.54-1.47-2.38-.4-.84-.72-1.57-.95-2.21-.12-.4-.4-.55-.87-.43-.46.12-.58.4-.35.87.29.92.74,1.92,1.34,2.99.61,1.07,1.31,2.09,2.12,3.07.98.98,2.16,2.05,3.55,3.2,1.39,1.16,2.71,2.47,3.98,3.94,1.27,1.47,2.34,3.14,3.2,5.02.87,1.88,1.3,4.02,1.3,6.45,0,1.79-.25,3.52-.74,5.19-.49,1.67-1.23,3.16-2.21,4.46-.98,1.3-2.21,2.34-3.68,3.12-1.47.78-3.19,1.2-5.15,1.25-3.23.12-6.07-.53-8.53-1.95-2.45-1.41-4.05-3.65-4.8-6.71Z"/>
      <path class="cls-1" d="m159.9,14.56c1.67-.58,3.38-.87,5.11-.87,2.37,0,4.59.51,6.66,1.51,2.08,1.01,3.92,2.29,5.54,3.85,1.61,1.56,2.97,3.23,4.07,5.02,1.09,1.79,1.85,3.46,2.25,5.02.58,2.19.65,4.28.22,6.28-.43,1.99-1.26,3.76-2.47,5.32-1.21,1.56-2.76,2.84-4.63,3.85-1.88,1.01-3.94,1.63-6.19,1.86,0,.06.16.36.48.91.32.55.69,1.18,1.13,1.9.43.72.85,1.44,1.26,2.16.4.72.66,1.28.78,1.69.52,1.96.69,3.81.52,5.54-.17,1.73-.65,3.26-1.43,4.59-.78,1.33-1.79,2.38-3.03,3.16-1.24.78-2.67,1.2-4.28,1.26-1.27.06-2.31-.14-3.12-.61-.81-.46-1.46-1.07-1.95-1.82-.49-.75-.81-1.61-.95-2.6-.14-.98-.22-1.99-.22-3.03.06-1.79.14-3.27.26-4.46.11-1.18.14-2.47.09-3.85-.06-1.38-.27-3.12-.65-5.19-.38-2.08-1.05-4.9-2.03-8.48-.4-1.44-.84-3.3-1.3-5.58-.46-2.28-.71-4.59-.74-6.92-.03-2.34.29-4.49.95-6.45.66-1.96,1.89-3.32,3.68-4.07Zm7.53,7.7c.52.75,1.04,1.69,1.56,2.81.52,1.13,1.01,2.28,1.47,3.46.46,1.18.87,2.35,1.21,3.51.35,1.15.61,2.19.78,3.12.11.4.37.58.78.52.46-.11.63-.38.52-.78-.17-.87-.45-1.9-.82-3.12-.38-1.21-.82-2.45-1.34-3.72-.52-1.27-1.05-2.5-1.6-3.68-.55-1.18-1.05-2.12-1.51-2.81-.23-.35-.52-.4-.87-.17-.46.23-.52.52-.17.87Z"/>
      <path class="cls-1" d="m185.6,54.11c.4-2.08.58-4.1.52-6.06-.06-1.96-.23-4.01-.52-6.14-.29-2.02-.4-3.76-.35-5.24.06-1.47.29-2.8.69-3.98.4-1.18.95-2.26,1.64-3.25.69-.98,1.5-1.93,2.42-2.86-1.9-.52-3.26-1.33-4.07-2.42-.81-1.1-1.16-2.34-1.04-3.72.06-1.15.33-2.21.82-3.16.49-.95,1.14-1.79,1.95-2.51.81-.72,1.73-1.27,2.77-1.64,1.04-.37,2.16-.56,3.38-.56,2.36.06,4.15.65,5.37,1.77s1.73,2.61,1.56,4.46c-.17,1.67-.69,3.04-1.56,4.11-.87,1.07-1.88,2.01-3.03,2.81,1.15.75,1.99,1.62,2.51,2.6.52.98.81,2.02.87,3.12.06,1.1-.06,2.22-.35,3.37-.29,1.16-.66,2.25-1.13,3.29-.4,1.04-.65,1.9-.73,2.6-.09.69-.04,1.31.13,1.86.17.55.49,1.11.95,1.69.46.58,1.04,1.3,1.73,2.16,1.85,2.14,3.04,4.44,3.59,6.92.55,2.48.51,4.82-.13,7.01-.64,2.19-1.83,4.08-3.59,5.67-1.76,1.59-4.05,2.55-6.88,2.9-2.37.23-4.14-.11-5.32-1.04-1.18-.92-1.99-2.15-2.42-3.68-.43-1.53-.58-3.2-.43-5.02.14-1.82.36-3.5.65-5.06Z"/>
      <path class="cls-1" d="m221.69,11.19c4.33,0,7.74.81,10.25,2.42,2.51,1.62,4.02,3.61,4.54,5.97.52,2.37.01,4.9-1.51,7.62-1.53,2.71-4.2,5.16-8.01,7.36,2.02.69,3.64,1.75,4.85,3.16,1.21,1.41,2.05,2.99,2.51,4.72.46,1.73.58,3.55.35,5.45-.23,1.9-.74,3.66-1.52,5.28-.78,1.62-1.82,3-3.11,4.15-1.3,1.15-2.81,1.88-4.54,2.16-1.38.23-2.57.16-3.55-.22-.98-.38-1.77-.95-2.38-1.73-.61-.78-1.1-1.72-1.47-2.81-.38-1.09-.65-2.25-.82-3.46-.29-1.9-.36-3.81-.22-5.71.14-1.9.51-3.49,1.08-4.76.23-.46.12-.75-.35-.87-.46-.23-.75-.11-.87.35-.64,1.38-1.04,3.09-1.21,5.11-.17,2.02-.09,4.04.26,6.06.29,1.67.75,3.25,1.38,4.72.63,1.47,1.44,2.64,2.42,3.51-.17,1.1-.4,2.26-.69,3.5-.29,1.24-.72,2.37-1.3,3.38-.58,1.01-1.33,1.85-2.25,2.51-.92.66-2.08,1-3.46,1-1.67-.06-3-.52-3.98-1.39-.98-.87-1.72-1.98-2.21-3.33-.49-1.36-.75-2.88-.78-4.59-.03-1.7.03-3.39.17-5.06.14-1.67.36-3.27.65-4.8.29-1.53.55-2.78.78-3.76.35-1.56.63-3,.87-4.33.23-1.33.37-2.64.43-3.94.06-1.3.03-2.62-.09-3.98-.12-1.36-.32-2.81-.61-4.37-.58-3.06-.84-5.78-.78-8.18.06-2.39.61-4.41,1.64-6.06,1.04-1.64,2.64-2.9,4.8-3.76,2.16-.87,5.06-1.3,8.7-1.3Zm1.9,15.32c.35-.11.52-.37.52-.78-.12-.46-.19-.95-.22-1.47-.03-.52-.07-1.07-.13-1.64,0-.69.01-1.38.04-2.08.03-.69.07-1.27.13-1.73,0-.52-.2-.78-.61-.78-.17-.06-.33-.01-.48.13-.14.14-.22.3-.22.48-.12.46-.17,1.05-.17,1.77v2.21c0,.64.01,1.24.04,1.82.03.58.1,1.1.22,1.56.11.46.4.64.86.52Z"/>
      <path class="cls-1" d="m238.31,54.11c.4-2.08.58-4.1.52-6.06-.06-1.96-.23-4.01-.52-6.14-.29-2.02-.4-3.76-.35-5.24.06-1.47.29-2.8.69-3.98.4-1.18.95-2.26,1.64-3.25.69-.98,1.5-1.93,2.42-2.86-1.9-.52-3.26-1.33-4.07-2.42-.81-1.1-1.15-2.34-1.04-3.72.06-1.15.33-2.21.82-3.16.49-.95,1.14-1.79,1.95-2.51.81-.72,1.73-1.27,2.77-1.64,1.04-.37,2.16-.56,3.37-.56,2.37.06,4.15.65,5.37,1.77s1.73,2.61,1.56,4.46c-.17,1.67-.69,3.04-1.56,4.11-.87,1.07-1.88,2.01-3.03,2.81,1.15.75,1.99,1.62,2.51,2.6.52.98.81,2.02.87,3.12.06,1.1-.06,2.22-.35,3.37-.29,1.16-.66,2.25-1.13,3.29-.4,1.04-.65,1.9-.73,2.6-.09.69-.04,1.31.13,1.86.17.55.49,1.11.95,1.69.46.58,1.04,1.3,1.73,2.16,1.85,2.14,3.04,4.44,3.59,6.92.55,2.48.5,4.82-.13,7.01-.64,2.19-1.83,4.08-3.59,5.67-1.76,1.59-4.05,2.55-6.88,2.9-2.37.23-4.14-.11-5.32-1.04-1.18-.92-1.99-2.15-2.42-3.68-.43-1.53-.58-3.2-.43-5.02.14-1.82.36-3.5.65-5.06Z"/>
      <path class="cls-1" d="m268.08,30.75c-.35.06-.78.2-1.3.43-.52.23-1.08.46-1.69.69-.61.23-1.2.45-1.78.65-.58.2-1.1.33-1.56.39-1.5.12-2.76-.39-3.77-1.51-1.01-1.13-1.63-2.52-1.86-4.2-.23-1.67-.01-3.49.65-5.45.66-1.96,1.89-3.74,3.68-5.32,1.79-1.59,4.18-2.83,7.18-3.72,3-.89,6.72-1.14,11.16-.73,3.86.35,6.94,1.15,9.22,2.42,2.28,1.27,3.95,2.73,5.02,4.37s1.59,3.39,1.56,5.24c-.03,1.85-.45,3.55-1.26,5.11-.81,1.56-1.95,2.84-3.42,3.85-1.47,1.01-3.13,1.51-4.98,1.51-1.96,0-4.01-.72-6.14-2.16-1.1,1.96-1.88,4.05-2.34,6.27-.46,2.22-.74,4.43-.82,6.62-.09,2.19-.07,4.31.04,6.36.12,2.05.2,3.88.26,5.5.06,1.62.01,3.15-.13,4.59-.14,1.44-.48,2.71-1,3.81-.52,1.1-1.24,1.96-2.16,2.6-.92.64-2.13.95-3.63.95-2.42,0-4.24-.78-5.45-2.34s-1.99-3.56-2.34-6.01c-.35-2.45-.32-5.16.09-8.14.4-2.97.98-5.87,1.73-8.7.75-2.83,1.59-5.41,2.51-7.75.92-2.34,1.76-4.11,2.51-5.32Z"/>
    </g>
    <g>
      <path class="cls-1" d="m131.44,76.39h9.56v53.23h21.34l-1.03,8.21h-29.86v-61.44Z"/>
      <path class="cls-1" d="m179.16,120.99l-3.53,16.84h-9.56s14.44-61.44,14.44-61.44h12.39l14.69,61.44h-10.05l-3.56-16.84h-14.81Zm13.05-8.33c-2.73-12.9-4.72-21.84-5.64-27.37h-.25c-.78,5.55-2.92,15.41-5.44,27.37h11.32Z"/>
      <path class="cls-1" d="m213.25,76.39h17.8c10.16,0,15.95,5.77,15.95,15.36,0,7.92-3.79,11.62-7.25,12.89,4.45,1.73,9.11,5.82,9.11,15.14,0,11.46-7.28,18.05-18.12,18.05h-17.48v-61.44Zm15.27,24.89c7.13,0,9.27-2.91,9.27-8.66s-2.96-8.57-8.73-8.57h-6.44v17.22h5.9Zm-5.9,29.01h7.14c6.08,0,9.51-3.34,9.51-10.64s-3.16-10.82-10.74-10.82h-5.91v21.46Z"/>
      <path class="cls-1" d="m263.86,120.99c.52,5.51,2.9,10.19,8.9,10.19s8.19-3.44,8.19-8.86-2.53-8.64-10.5-12.46c-10.21-4.86-14.38-9.22-14.38-18.28s6.01-16.11,16.75-16.11c13.15,0,16.49,9.06,16.67,16.79h-9.37c-.34-3.33-1.24-9.16-7.51-9.16-4.88,0-7.02,3.24-7.02,7.67,0,4.92,2.19,7.23,9.56,10.69,10.93,5.11,15.53,10.11,15.53,20.01s-5.8,17.34-18.21,17.34c-13.51,0-17.72-8.71-18.14-17.82h9.52Z"/>
    </g>
  </g>
</svg>