<?xml version="1.0" encoding="utf-8"?>
<!-- Generator: Adobe Illustrator 28.0.0, SVG Export Plug-In . SVG Version: 6.00 Build 0)  -->
<svg version="1.1" id="Layer_1" xmlns="http://www.w3.org/2000/svg" xmlns:xlink="http://www.w3.org/1999/xlink" x="0px" y="0px"
	 viewBox="0 0 300 150" style="enable-background:new 0 0 300 150;" xml:space="preserve">
<style type="text/css">
	.st0{fill:#209BEF;}
</style>
<g>
	<path class="st0" d="M81.4,11.2c3.7,0,6.8,3.1,6.8,6.8l0,0c0,3.7-3.1,6.8-6.8,6.8h-0.8v39.8l36.9,57.8c3.9,7.5-1.6,16.5-10,16.5
		H21.3c-8.5,0-13.9-9-10-16.5l36.9-57.8V24.8h-0.8c-3.7,0-6.8-3-6.8-6.8l0,0c0-3.7,3-6.8,6.8-6.8L81.4,11.2 M81.4,6.6H47.3
		C41,6.6,35.9,11.7,35.9,18c0,5,3.2,9.2,7.6,10.8v34.5L7.4,119.9L7.3,120l-0.1,0.2c-2.6,5-2.4,10.8,0.5,15.6c2.9,4.8,8,7.6,13.6,7.6
		h86.1c5.6,0,10.7-2.9,13.6-7.6s3.1-10.6,0.5-15.6l-0.1-0.2l-0.1-0.2L85.2,63.2V28.7c4.4-1.6,7.6-5.8,7.6-10.8
		C92.8,11.7,87.7,6.6,81.4,6.6L81.4,6.6L81.4,6.6z"/>
	<path class="st0" d="M113.1,131c-1.2,2-3.3,3.2-5.7,3.2H21.3c-2.4,0-4.5-1.2-5.7-3.2c-1.2-2-1.3-4.3-0.3-6.4l25.9-40.5
		c2.3,2,7.2,5.4,13.8,5.4c9.4,0,15.5-8.9,23.8-8.9c3.2,0,6.2,1.3,8.1,2.3h0l26.6,41.7C114.4,126.7,114.3,129,113.1,131L113.1,131z"
		/>
	<circle class="st0" cx="55.6" cy="75" r="4.7"/>
	<circle class="st0" cx="74.5" cy="76.2" r="2.3"/>
	<circle class="st0" cx="57.5" cy="41.6" r="2.8"/>
	<circle class="st0" cx="70.3" cy="58.3" r="3.9"/>
</g>
<g>
	<g>
		<path class="st0" d="M129,59.5c-0.5-1.7-0.6-3.4-0.4-4.9c0.2-1.5,0.5-2.9,1-4c0.5-1.2,1.2-2.1,1.9-2.7c0.8-0.7,1.6-1,2.4-1
			c0.6,0,1.2,0.2,1.8,0.7c0.6,0.5,1.3,1.1,1.9,1.8s1.1,1.4,1.6,2.1c0.5,0.7,0.8,1.3,0.9,1.8c0.2,0.4,0.5,0.5,0.9,0.3
			c0.4-0.1,0.5-0.4,0.4-0.9c-0.4-0.9-1-1.8-1.8-2.9c-0.8-1.1-1.7-2.1-2.8-3.1c-0.5-0.5-0.9-0.9-1.5-1.3s-1-0.9-1.6-1.4
			c-2.1-2.1-3.7-4.6-4.8-7.5c-1.1-2.9-1.6-5.8-1.5-8.7c0.1-1.9,0.4-3.7,1-5.5s1.5-3.3,2.6-4.7c1.1-1.4,2.4-2.5,4-3.3
			s3.4-1.3,5.4-1.3c3.5-0.1,6.4,0.8,8.7,2.7s3.9,4.5,4.7,7.8c0.6,2.5,0.7,4.7,0.1,6.7c-0.6,2-1.8,3.6-3.6,4.8
			c-1.3,1-2.6,1.5-3.9,1.5c-0.8,0-1.6-0.3-2.2-0.8s-1.3-1.2-1.9-1.9c-0.6-0.8-1.1-1.5-1.5-2.4s-0.7-1.6-0.9-2.2
			c-0.1-0.4-0.4-0.5-0.9-0.4c-0.5,0.1-0.6,0.4-0.4,0.9c0.3,0.9,0.7,1.9,1.3,3c0.6,1.1,1.3,2.1,2.1,3.1c1,1,2.2,2,3.6,3.2
			c1.4,1.2,2.7,2.5,4,3.9c1.3,1.5,2.3,3.1,3.2,5c0.9,1.9,1.3,4,1.3,6.5c0,1.8-0.2,3.5-0.7,5.2s-1.2,3.2-2.2,4.5
			c-1,1.3-2.2,2.3-3.7,3.1c-1.5,0.8-3.2,1.2-5.1,1.2c-3.2,0.1-6.1-0.5-8.5-1.9C131.4,64.8,129.8,62.5,129,59.5L129,59.5z"/>
		<path class="st0" d="M159.9,14.6c1.7-0.6,3.4-0.9,5.1-0.9c2.4,0,4.6,0.5,6.7,1.5c2.1,1,3.9,2.3,5.5,3.9c1.6,1.6,3,3.2,4.1,5
			c1.1,1.8,1.9,3.5,2.2,5c0.6,2.2,0.6,4.3,0.2,6.3c-0.4,2-1.3,3.8-2.5,5.3s-2.8,2.8-4.6,3.8c-1.9,1-3.9,1.6-6.2,1.9
			c0,0.1,0.2,0.4,0.5,0.9c0.3,0.5,0.7,1.2,1.1,1.9c0.4,0.7,0.9,1.4,1.3,2.2c0.4,0.7,0.7,1.3,0.8,1.7c0.5,2,0.7,3.8,0.5,5.5
			s-0.6,3.3-1.4,4.6s-1.8,2.4-3,3.2c-1.2,0.8-2.7,1.2-4.3,1.3c-1.3,0.1-2.3-0.1-3.1-0.6c-0.8-0.5-1.5-1.1-1.9-1.8
			c-0.5-0.8-0.8-1.6-0.9-2.6c-0.1-1-0.2-2-0.2-3c0.1-1.8,0.1-3.3,0.3-4.5c0.1-1.2,0.1-2.5,0.1-3.8c-0.1-1.4-0.3-3.1-0.6-5.2
			c-0.4-2.1-1.1-4.9-2-8.5c-0.4-1.4-0.8-3.3-1.3-5.6s-0.7-4.6-0.7-6.9c0-2.3,0.3-4.5,0.9-6.5S158.1,15.3,159.9,14.6L159.9,14.6z
			 M167.4,22.3c0.5,0.8,1,1.7,1.6,2.8c0.5,1.1,1,2.3,1.5,3.5c0.5,1.2,0.9,2.4,1.2,3.5c0.4,1.2,0.6,2.2,0.8,3.1
			c0.1,0.4,0.4,0.6,0.8,0.5c0.5-0.1,0.6-0.4,0.5-0.8c-0.2-0.9-0.4-1.9-0.8-3.1c-0.4-1.2-0.8-2.5-1.3-3.7c-0.5-1.3-1.1-2.5-1.6-3.7
			s-1.1-2.1-1.5-2.8c-0.2-0.4-0.5-0.4-0.9-0.2C167.1,21.6,167.1,21.9,167.4,22.3L167.4,22.3z"/>
		<path class="st0" d="M185.6,54.1c0.4-2.1,0.6-4.1,0.5-6.1c-0.1-2-0.2-4-0.5-6.1c-0.3-2-0.4-3.8-0.4-5.2c0.1-1.5,0.3-2.8,0.7-4
			c0.4-1.2,0.9-2.3,1.6-3.2c0.7-1,1.5-1.9,2.4-2.9c-1.9-0.5-3.3-1.3-4.1-2.4c-0.8-1.1-1.2-2.3-1-3.7c0.1-1.1,0.3-2.2,0.8-3.2
			s1.1-1.8,1.9-2.5s1.7-1.3,2.8-1.6c1-0.4,2.2-0.6,3.4-0.6c2.4,0.1,4.1,0.6,5.4,1.8s1.7,2.6,1.6,4.5c-0.2,1.7-0.7,3-1.6,4.1
			s-1.9,2-3,2.8c1.1,0.8,2,1.6,2.5,2.6c0.5,1,0.8,2,0.9,3.1s-0.1,2.2-0.4,3.4c-0.3,1.2-0.7,2.2-1.1,3.3c-0.4,1-0.6,1.9-0.7,2.6
			c-0.1,0.7,0,1.3,0.1,1.9s0.5,1.1,0.9,1.7c0.5,0.6,1,1.3,1.7,2.2c1.9,2.1,3,4.4,3.6,6.9s0.5,4.8-0.1,7c-0.6,2.2-1.8,4.1-3.6,5.7
			s-4.1,2.6-6.9,2.9c-2.4,0.2-4.1-0.1-5.3-1c-1.2-0.9-2-2.2-2.4-3.7s-0.6-3.2-0.4-5C185.1,57.3,185.3,55.7,185.6,54.1L185.6,54.1z"
			/>
		<path class="st0" d="M221.7,11.2c4.3,0,7.7,0.8,10.2,2.4c2.5,1.6,4,3.6,4.5,6c0.5,2.4,0,4.9-1.5,7.6c-1.5,2.7-4.2,5.2-8,7.4
			c2,0.7,3.6,1.8,4.9,3.2s2.1,3,2.5,4.7c0.5,1.7,0.6,3.5,0.4,5.5s-0.7,3.7-1.5,5.3s-1.8,3-3.1,4.2c-1.3,1.2-2.8,1.9-4.5,2.2
			c-1.4,0.2-2.6,0.2-3.6-0.2s-1.8-1-2.4-1.7s-1.1-1.7-1.5-2.8c-0.4-1.1-0.6-2.2-0.8-3.5c-0.3-1.9-0.4-3.8-0.2-5.7
			c0.1-1.9,0.5-3.5,1.1-4.8c0.2-0.5,0.1-0.8-0.4-0.9c-0.5-0.2-0.8-0.1-0.9,0.3c-0.6,1.4-1,3.1-1.2,5.1c-0.2,2-0.1,4,0.3,6.1
			c0.3,1.7,0.8,3.2,1.4,4.7s1.4,2.6,2.4,3.5c-0.2,1.1-0.4,2.3-0.7,3.5c-0.3,1.2-0.7,2.4-1.3,3.4s-1.3,1.8-2.2,2.5s-2.1,1-3.5,1
			c-1.7-0.1-3-0.5-4-1.4s-1.7-2-2.2-3.3c-0.5-1.4-0.8-2.9-0.8-4.6c0-1.7,0-3.4,0.2-5.1c0.1-1.7,0.4-3.3,0.6-4.8s0.6-2.8,0.8-3.8
			c0.4-1.6,0.6-3,0.9-4.3c0.2-1.3,0.4-2.6,0.4-3.9s0-2.6-0.1-4s-0.3-2.8-0.6-4.4c-0.6-3.1-0.8-5.8-0.8-8.2c0.1-2.4,0.6-4.4,1.6-6.1
			c1-1.6,2.6-2.9,4.8-3.8C215.1,11.6,218,11.2,221.7,11.2L221.7,11.2z M223.6,26.5c0.4-0.1,0.5-0.4,0.5-0.8c-0.1-0.5-0.2-1-0.2-1.5
			c0-0.5-0.1-1.1-0.1-1.6c0-0.7,0-1.4,0-2.1c0-0.7,0.1-1.3,0.1-1.7c0-0.5-0.2-0.8-0.6-0.8c-0.2-0.1-0.3,0-0.5,0.1
			c-0.1,0.1-0.2,0.3-0.2,0.5c-0.1,0.5-0.2,1-0.2,1.8v2.2c0,0.6,0,1.2,0,1.8s0.1,1.1,0.2,1.6C222.8,26.5,223.1,26.6,223.6,26.5
			L223.6,26.5z"/>
		<path class="st0" d="M238.3,54.1c0.4-2.1,0.6-4.1,0.5-6.1c-0.1-2-0.2-4-0.5-6.1c-0.3-2-0.4-3.8-0.4-5.2c0.1-1.5,0.3-2.8,0.7-4
			c0.4-1.2,0.9-2.3,1.6-3.2c0.7-1,1.5-1.9,2.4-2.9c-1.9-0.5-3.3-1.3-4.1-2.4c-0.8-1.1-1.1-2.3-1-3.7c0.1-1.1,0.3-2.2,0.8-3.2
			s1.1-1.8,1.9-2.5s1.7-1.3,2.8-1.6c1-0.4,2.2-0.6,3.4-0.6c2.4,0.1,4.1,0.6,5.4,1.8s1.7,2.6,1.6,4.5c-0.2,1.7-0.7,3-1.6,4.1
			s-1.9,2-3,2.8c1.1,0.8,2,1.6,2.5,2.6c0.5,1,0.8,2,0.9,3.1s-0.1,2.2-0.4,3.4c-0.3,1.2-0.7,2.2-1.1,3.3c-0.4,1-0.6,1.9-0.7,2.6
			c-0.1,0.7,0,1.3,0.1,1.9s0.5,1.1,0.9,1.7c0.5,0.6,1,1.3,1.7,2.2c1.9,2.1,3,4.4,3.6,6.9c0.5,2.5,0.5,4.8-0.1,7
			c-0.6,2.2-1.8,4.1-3.6,5.7s-4.1,2.6-6.9,2.9c-2.4,0.2-4.1-0.1-5.3-1c-1.2-0.9-2-2.2-2.4-3.7s-0.6-3.2-0.4-5
			C237.8,57.3,238,55.7,238.3,54.1L238.3,54.1z"/>
		<path class="st0" d="M268.1,30.8c-0.4,0.1-0.8,0.2-1.3,0.4s-1.1,0.5-1.7,0.7c-0.6,0.2-1.2,0.4-1.8,0.6s-1.1,0.3-1.6,0.4
			c-1.5,0.1-2.8-0.4-3.8-1.5c-1-1.1-1.6-2.5-1.9-4.2c-0.2-1.7,0-3.5,0.6-5.5s1.9-3.7,3.7-5.3c1.8-1.6,4.2-2.8,7.2-3.7
			s6.7-1.1,11.2-0.7c3.9,0.4,6.9,1.1,9.2,2.4s4,2.7,5,4.4s1.6,3.4,1.6,5.2s-0.5,3.5-1.3,5.1c-0.8,1.6-2,2.8-3.4,3.9
			c-1.5,1-3.1,1.5-5,1.5c-2,0-4-0.7-6.1-2.2c-1.1,2-1.9,4-2.3,6.3s-0.7,4.4-0.8,6.6c-0.1,2.2-0.1,4.3,0,6.4c0.1,2,0.2,3.9,0.3,5.5
			s0,3.2-0.1,4.6s-0.5,2.7-1,3.8s-1.2,2-2.2,2.6S270.5,69,269,69c-2.4,0-4.2-0.8-5.5-2.3s-2-3.6-2.3-6s-0.3-5.2,0.1-8.1
			c0.4-3,1-5.9,1.7-8.7c0.8-2.8,1.6-5.4,2.5-7.8S267.3,32,268.1,30.8L268.1,30.8z"/>
	</g>
	<g>
		<path class="st0" d="M131.4,76.4h9.6v53.2h21.3l-1,8.2h-29.9L131.4,76.4L131.4,76.4z"/>
		<path class="st0" d="M179.2,121l-3.5,16.8h-9.6l14.4-61.4h12.4l14.7,61.4h-10.1L194,121L179.2,121L179.2,121z M192.2,112.7
			c-2.7-12.9-4.7-21.8-5.6-27.4h-0.2c-0.8,5.6-2.9,15.4-5.4,27.4H192.2L192.2,112.7z"/>
		<path class="st0" d="M213.2,76.4h17.8c10.2,0,15.9,5.8,15.9,15.4c0,7.9-3.8,11.6-7.2,12.9c4.4,1.7,9.1,5.8,9.1,15.1
			c0,11.5-7.3,18.1-18.1,18.1h-17.5L213.2,76.4L213.2,76.4z M228.5,101.3c7.1,0,9.3-2.9,9.3-8.7s-3-8.6-8.7-8.6h-6.4v17.2
			L228.5,101.3L228.5,101.3z M222.6,130.3h7.1c6.1,0,9.5-3.3,9.5-10.6s-3.2-10.8-10.7-10.8h-5.9L222.6,130.3L222.6,130.3z"/>
		<path class="st0" d="M263.9,121c0.5,5.5,2.9,10.2,8.9,10.2s8.2-3.4,8.2-8.9s-2.5-8.6-10.5-12.5c-10.2-4.9-14.4-9.2-14.4-18.3
			s6-16.1,16.8-16.1c13.1,0,16.5,9.1,16.7,16.8h-9.4c-0.3-3.3-1.2-9.2-7.5-9.2c-4.9,0-7,3.2-7,7.7c0,4.9,2.2,7.2,9.6,10.7
			c10.9,5.1,15.5,10.1,15.5,20s-5.8,17.3-18.2,17.3c-13.5,0-17.7-8.7-18.1-17.8H263.9L263.9,121z"/>
	</g>
</g>
</svg>
